PathFileType	4	(X/Y/Z)	C:\Users\dbl\Desktop\20210112\20210112\bx_n_0_901.trc
DataRate	CameraRate	NumFrames	NumMarkers	Units	OrigDataRate	OrigDataStartFrame	OrigNumFrames
50.00	50.00	       5	43	mm	50.00	47	       370
Frame#	Time	Top.Head			R.Acromium			L.Acromium			Sternum			R.ASIS			L.ASIS			V.Sacral			R.Thigh.Upper			R.Thigh.Front			R.Thigh.Rear			R.Knee.Lat			R.Knee.Med			R.Shank.Upper			R.Shank.Front			R.Shank.Rear			R.Ankle.Lat			R.Midfoot.Lat			R.Toe.Lat			R.Toe.Tip			R.Toe.Med			R.Ankle.Med			R.Midfoot.Sup			R.Heel			L.Thigh.Upper			L.Thigh.Front			L.Thigh.Rear			L.Knee.Lat			L.Knee.Med			L.Shank.Upper			L.Shank.Front			L.Shank.Rear			L.Ankle.Lat			L.Midfoot.Lat			L.Toe.Lat			L.Toe.Tip			L.Toe.Med			L.Ankle.Med			L.Midfoot.Sup			L.Heel			origin1 front left			origin2 front right			origin 3 back right			origin 4 back leftt			
		X1	Y1	Z1	X2	Y2	Z2	X3	Y3	Z3	X4	Y4	Z4	X5	Y5	Z5	X6	Y6	Z6	X7	Y7	Z7	X8	Y8	Z8	X9	Y9	Z9	X10	Y10	Z10	X11	Y11	Z11	X12	Y12	Z12	X13	Y13	Z13	X14	Y14	Z14	X15	Y15	Z15	X16	Y16	Z16	X17	Y17	Z17	X18	Y18	Z18	X19	Y19	Z19	X20	Y20	Z20	X21	Y21	Z21	X22	Y22	Z22	X23	Y23	Z23	X24	Y24	Z24	X25	Y25	Z25	X26	Y26	Z26	X27	Y27	Z27	X28	Y28	Z28	X29	Y29	Z29	X30	Y30	Z30	X31	Y31	Z31	X32	Y32	Z32	X33	Y33	Z33	X34	Y34	Z34	X35	Y35	Z35	X36	Y36	Z36	X37	Y37	Z37	X38	Y38	Z38	X39	Y39	Z39	X40	Y40	Z40	X41	Y41	Z41	X42	Y42	Z42	X43	Y43	Z43	

47	0.920	-663.01874	110.74264	1852.25684	-681.44330	-82.37344	1534.63330	-700.69934	282.86548	1530.11938	-581.05896	104.25613	1355.21436	-584.55762	-11.27544	1051.64331	-589.08856	235.41931	1062.18042	-788.42188	91.35957	1062.16089	-654.58344	-77.46793	870.36212	-579.86060	-10.17194	800.31531	-675.83429	-67.07520	754.27765	-702.08124	-38.49121	613.04620	-691.33185	71.54112	571.58698	-710.76282	-36.34084	567.59485	-663.81207	13.73614	518.04138	-754.81384	-48.54389	488.08600	-758.21301	-19.02585	206.85893	-648.18427	-66.62196	163.04192	-606.04437	-71.40947	158.83765	-548.06323	-24.86927	164.39482	-600.31067	28.39633	166.28221	-674.33179	54.46955	158.04907	-719.61249	70.85381	216.50215	-793.49036	39.13451	175.05978	-673.90125	281.26712	872.43140	-580.32599	215.74429	790.19659	-683.50946	267.87653	742.65625	-720.45850	251.00258	641.32947	-688.53949	140.76376	573.98389	-720.91669	245.41545	575.48816	-670.55627	201.77403	533.21912	-760.99359	257.60172	502.31903	-764.47418	227.28546	205.73038	-652.57513	291.59201	157.16922	-615.37701	297.50308	158.76530	-552.63171	243.18895	166.04663	-589.30975	207.40353	174.09862	-714.72186	150.19539	216.90402	-675.46582	165.86909	157.25485	-795.52209	179.88783	184.71683	-528.19476	304.14264	146.53745	-517.73590	-72.68452	143.04442	-875.91589	-78.66718	141.37976	-882.52875	296.03818	144.59026	
48	0.940	-663.11725	110.86871	1852.23682	-681.53992	-82.31678	1534.62561	-700.80103	282.90024	1530.12024	-581.18280	104.27541	1355.19128	-584.59418	-11.28837	1051.67908	-589.09906	235.50806	1062.25452	-788.54187	91.45121	1062.14563	-654.61066	-77.37443	870.31042	-579.86310	-10.18449	800.34515	-675.85315	-67.05650	754.28778	-702.05701	-38.45182	613.09436	-691.33856	71.55143	571.55591	-710.75708	-36.30426	567.60406	-663.83203	13.83329	517.98962	-754.81042	-48.51900	488.10696	-758.24249	-19.01079	206.84074	-648.22174	-66.60677	163.04691	-606.04852	-71.42660	158.89255	-548.06671	-24.86640	164.39050	-600.26154	28.38857	166.33708	-674.39819	54.48191	158.08093	-719.64063	70.85194	216.49866	-793.49994	39.12470	175.05992	-673.91791	281.33060	872.44757	-580.30072	215.80161	790.22064	-683.50562	267.87698	742.66937	-720.44971	251.04921	641.25647	-688.65985	140.88319	573.89679	-720.91724	245.42444	575.43488	-670.59125	201.78459	533.17438	-760.99805	257.62598	502.33371	-764.49677	227.31000	205.75093	-652.58752	291.58502	157.17706	-615.38324	297.50894	158.77045	-552.65796	243.18611	166.00972	-589.29144	207.40431	174.12041	-714.76813	150.19963	216.91792	-675.46161	165.88162	157.24448	-795.51343	179.90222	184.70403	-528.19788	304.10852	146.57916	-517.73444	-72.68956	143.04965	-875.94678	-78.71836	141.41582	-882.54419	296.09082	144.62537	
49	0.960	-663.23236	111.00166	1852.21997	-681.62781	-82.25214	1534.61292	-700.88171	282.92746	1530.10925	-581.27173	104.29063	1355.19189	-584.64160	-11.29360	1051.71423	-589.08069	235.67477	1062.37451	-788.64716	91.53929	1062.14990	-654.61157	-77.27810	870.25958	-579.85358	-10.19822	800.36163	-675.87488	-67.03390	754.28882	-702.04999	-38.42469	613.15027	-691.37225	71.58176	571.50470	-710.75391	-36.26275	567.63000	-663.84320	13.92802	517.95148	-754.79797	-48.49337	488.12668	-758.21558	-19.03048	206.85594	-648.25616	-66.58913	163.03548	-606.05267	-71.45885	158.94032	-548.05200	-24.82792	164.35353	-600.16351	28.38809	166.45515	-674.43066	54.48743	158.07552	-719.65552	70.85202	216.49954	-793.51343	39.12269	175.07408	-673.93188	281.36005	872.46222	-580.27277	215.85094	790.26117	-683.50018	267.86115	742.69141	-720.44550	251.10878	641.19904	-688.71765	140.94745	573.84344	-720.89594	245.45599	575.36731	-670.56989	201.79581	533.17169	-760.98279	257.63144	502.31229	-764.50726	227.35086	205.78822	-652.57666	291.58878	157.18671	-615.38312	297.50015	158.77820	-552.68604	243.18634	165.96274	-589.27161	207.39967	174.13622	-714.82208	150.20349	216.91554	-675.43500	165.90129	157.26570	-795.50159	179.91115	184.70976	-528.22528	304.10468	146.59329	-517.73187	-72.69837	143.05872	-875.96924	-78.75753	141.43643	-882.54218	296.12866	144.65735	
50	0.980	-663.35223	111.12861	1852.21912	-681.70343	-82.17284	1534.60388	-700.95697	282.97336	1530.07043	-581.32355	104.30875	1355.21375	-584.69495	-11.28114	1051.74097	-589.03082	235.87363	1062.51013	-788.71851	91.62085	1062.15869	-654.60547	-77.18349	870.22034	-579.83588	-10.19458	800.37463	-675.88898	-66.99445	754.28986	-702.05487	-38.38346	613.18903	-691.40271	71.63248	571.44470	-710.74847	-36.21717	567.66217	-663.85510	13.98281	517.95306	-754.78387	-48.47588	488.13959	-758.15717	-19.06978	206.89163	-648.27594	-66.60110	163.00737	-606.05664	-71.50204	158.96053	-548.03973	-24.78994	164.31725	-600.07025	28.39127	166.57085	-674.40723	54.48193	158.05577	-719.65686	70.86285	216.51779	-793.53638	39.13919	175.08777	-673.93591	281.36911	872.46039	-580.24878	215.89931	790.32007	-683.49890	267.84799	742.70386	-720.44092	251.18111	641.17303	-688.72131	140.93930	573.85028	-720.85675	245.51357	575.32867	-670.52081	201.82542	533.19757	-760.97205	257.63519	502.27072	-764.51257	227.38681	205.81659	-652.54388	291.59601	157.18221	-615.38098	297.48724	158.78510	-552.69757	243.16983	165.94952	-589.25433	207.39262	174.14809	-714.83881	150.20724	216.91927	-675.39813	165.91899	157.31111	-795.48120	179.91298	184.69945	-528.26178	304.11157	146.55630	-517.73065	-72.70124	143.06157	-875.97638	-78.77044	141.43137	-882.52515	296.14056	144.67229	
51	1.000	-663.46368	111.23038	1852.23706	-681.77002	-82.07640	1534.60229	-701.03516	283.04178	1530.01685	-581.36298	104.33611	1355.23914	-584.75452	-11.24459	1051.74597	-588.98737	236.01434	1062.58228	-788.76715	91.69643	1062.15625	-654.62012	-77.09361	870.20081	-579.81378	-10.16344	800.39856	-675.87500	-66.93124	754.28448	-702.06366	-38.32322	613.19586	-691.39758	71.68616	571.40326	-710.73169	-36.17464	567.68658	-663.87152	14.00881	517.99823	-754.77649	-48.45996	488.14001	-758.11334	-19.09853	206.92238	-648.27142	-66.64869	162.98486	-606.05524	-71.53503	158.95164	-548.04608	-24.77601	164.31302	-600.02209	28.39388	166.63086	-674.34210	54.46293	158.04459	-719.64337	70.87486	216.54025	-793.55707	39.16792	175.09448	-673.92590	281.38651	872.43439	-580.23065	215.96207	790.38440	-683.49908	267.84818	742.68848	-720.43890	251.26933	641.18848	-688.71954	140.91061	573.86890	-720.82605	245.58243	575.33270	-670.47913	201.86737	533.23022	-760.97998	257.64679	502.23709	-764.52838	227.39845	205.81322	-652.51141	291.60095	157.16908	-615.37927	297.47882	158.78877	-552.68365	243.13789	165.98346	-589.24420	207.38400	174.14990	-714.80432	150.21327	216.95087	-675.36951	165.92374	157.35039	-795.47046	179.92404	184.68913	-528.28326	304.11145	146.49684	-517.73187	-72.69489	143.05482	-875.99036	-78.77796	141.42465	-882.49805	296.13916	144.68283	
